<svg xmlns="http://www.w3.org/2000/svg" xmlns:xlink="http://www.w3.org/1999/xlink" width="187.664" height="52.637" viewBox="0 0 187.664 52.637">
    <defs>
        <style>
            .anl {
                fill: #ededed;
            }

            .bnl {
                fill: #dadada;
            }

            .cnl {
                fill: url(#anl);
            }

            .dnl {
                fill: url(#bnl);
            }

            .enl {
                fill: #303134;
            }

            .fnl {
                fill: none;
                stroke: #ff7e43;
                stroke-miterlimit: 10;
                stroke-width: 0.25px;
            }
        </style>
        <linearGradient id="anl" x1="0.117" y1="0.845" x2="0.883" y2="0.155" gradientUnits="objectBoundingBox">
            <stop offset="0" stop-color="#f4964a"></stop>
            <stop offset="0.5" stop-color="#f67849"></stop>
        </linearGradient>
        <linearGradient id="bnl" x1="-0.291" y1="0.856" x2="1.031" y2="0.2" gradientUnits="objectBoundingBox">
            <stop offset="0.5" stop-color="#f67849"></stop>
            <stop offset="1" stop-color="#f4964a"></stop>
        </linearGradient>
    </defs>
    <g transform="translate(-99.213 -151.654)">
        <g transform="translate(99.213 151.654)">
            <g transform="translate(0 3.426)">
                <path class="anl" d="M107.388,161.989h0a23.515,23.515,0,0,0-6.952,13.831l-1.223,9.323v6.866a5.434,5.434,0,0,0,2.724,4.708l15.148,8.725a5.459,5.459,0,0,0,5.449,0l15.148-8.725a5.434,5.434,0,0,0,2.724-4.708v-6.866l-1.223-9.323a23.519,23.519,0,0,0-6.952-13.831h0A17.852,17.852,0,0,0,107.388,161.989Zm16.637,32.04L104.544,188.2a5.711,5.711,0,0,1,0-9.843l18.5-10.786a5.527,5.527,0,0,1,5.627,0,5.639,5.639,0,0,1,2.813,4.921l1.587,13.965A7.065,7.065,0,0,1,124.025,194.029Z" transform="translate(-99.213 -156.958)"></path>
                <path class="bnl" d="M143.524,163.277h0a17.923,17.923,0,0,0-3.563-2.682v8.269a5.639,5.639,0,0,1,2.813,4.921l1.587,13.965a7.065,7.065,0,0,1-9.044,7.567l-4.215-1.26v13.4a5.455,5.455,0,0,0,2.725-.729L148.975,198A5.434,5.434,0,0,0,151.7,193.3v-6.866l-1.223-9.323A23.519,23.519,0,0,0,143.524,163.277Z" transform="translate(-110.505 -158.246)"></path>
            </g>
            <path class="cnl" d="M137.683,161.107l-15.148-8.725a5.463,5.463,0,0,0-5.449,0l-15.148,8.725a5.434,5.434,0,0,0-2.724,4.708v17.45a5.434,5.434,0,0,0,2.724,4.708l15.148,8.725a5.459,5.459,0,0,0,5.449,0l15.148-8.725a5.434,5.434,0,0,0,2.724-4.708v-17.45a5.434,5.434,0,0,0-2.724-4.708Zm-6.2,24.22a5.64,5.64,0,0,1-2.814,4.922,5.527,5.527,0,0,1-5.626,0l-18.5-10.787a5.711,5.711,0,0,1,0-9.843l18.5-10.786a5.527,5.527,0,0,1,5.627,0,5.639,5.639,0,0,1,2.813,4.921Z" transform="translate(-99.213 -151.654)"></path>
            <path class="dnl" d="M148.975,163.443l-9.014-5.192v2.917a5.639,5.639,0,0,1,2.813,4.921v21.573a5.64,5.64,0,0,1-2.814,4.922,5.527,5.527,0,0,1-5.626,0L131.1,190.7v9.062a5.455,5.455,0,0,0,2.725-.729l15.148-8.725A5.434,5.434,0,0,0,151.7,185.6v-17.45a5.434,5.434,0,0,0-2.724-4.708Z" transform="translate(-110.505 -153.99)"></path>
        </g>
        <g transform="translate(149.561 163.097)">
            <g transform="translate(129.16 0)">
                <path class="enl" d="M378.576,173.3a.489.489,0,0,1-.145-.371v-2.673h-.8a.554.554,0,0,1-.371-.105.4.4,0,0,1-.122-.32.392.392,0,0,1,.122-.318.569.569,0,0,1,.371-.1h2.656a.571.571,0,0,1,.371.1.392.392,0,0,1,.122.318.4.4,0,0,1-.122.32.556.556,0,0,1-.371.105h-.8v2.673a.491.491,0,0,1-.145.371.6.6,0,0,1-.766,0Z" transform="translate(-377.138 -169.386)"></path>
                <path class="enl" d="M387.419,169.512a.509.509,0,0,1,.136.369v3.087a.462.462,0,0,1-.125.34.493.493,0,0,1-.656,0,.453.453,0,0,1-.128-.34V171.3L386,172.491a.728.728,0,0,1-.2.258.465.465,0,0,1-.51,0,.727.727,0,0,1-.2-.258l-.641-1.157v1.634a.456.456,0,0,1-.128.338.456.456,0,0,1-.786-.338v-3.087a.506.506,0,0,1,.139-.369.5.5,0,0,1,.633-.054.686.686,0,0,1,.21.253l1.044,1.964,1.038-1.964a.533.533,0,0,1,.477-.34A.465.465,0,0,1,387.419,169.512Z" transform="translate(-379.4 -169.37)"></path>
            </g>
            <path class="enl" d="M308.869,190.867a2.3,2.3,0,0,0-.738.145q-.418.144-.867.337a16.026,16.026,0,0,1-1.637.61,5.727,5.727,0,0,1-1.669.225,3.813,3.813,0,0,1-2.664-.851,4.045,4.045,0,0,1-1.11-2.436h7.17a3.008,3.008,0,0,0,2.923-3.726c-.886-3.556-3.2-5.763-7.057-5.763a7.741,7.741,0,0,0-4.012,1.043,7.3,7.3,0,0,0-2.761,2.905,8.918,8.918,0,0,0-.995,4.269,8.805,8.805,0,0,0,1.027,4.349,6.966,6.966,0,0,0,2.937,2.841,9.562,9.562,0,0,0,4.478.995,10.848,10.848,0,0,0,2.664-.369,11.5,11.5,0,0,0,2.536-.947,2.593,2.593,0,0,0,.9-.787,1.748,1.748,0,0,0,.32-1.011,2.077,2.077,0,0,0-.4-1.316A1.264,1.264,0,0,0,308.869,190.867Zm-5.52-8.12a2.68,2.68,0,0,1,2.135.866,3.757,3.757,0,0,1,.793,1.993h-6.055a3.816,3.816,0,0,1,.913-1.976A2.9,2.9,0,0,1,303.349,182.747Z" transform="translate(-219.052 -172.925)"></path>
            <path class="enl" d="M335.531,190.867a2.294,2.294,0,0,0-.738.145q-.418.144-.867.337a16.082,16.082,0,0,1-1.637.61,5.731,5.731,0,0,1-1.669.225,3.812,3.812,0,0,1-2.664-.851,4.041,4.041,0,0,1-1.11-2.436h7.17a3.008,3.008,0,0,0,2.923-3.726c-.886-3.556-3.2-5.763-7.057-5.763a7.739,7.739,0,0,0-4.012,1.043,7.3,7.3,0,0,0-2.761,2.905,8.918,8.918,0,0,0-.995,4.269,8.8,8.8,0,0,0,1.027,4.349,6.963,6.963,0,0,0,2.937,2.841,9.561,9.561,0,0,0,4.477.995,10.849,10.849,0,0,0,2.664-.369,11.515,11.515,0,0,0,2.536-.947,2.591,2.591,0,0,0,.9-.787,1.744,1.744,0,0,0,.321-1.011,2.078,2.078,0,0,0-.4-1.316A1.266,1.266,0,0,0,335.531,190.867Zm-5.521-8.12a2.678,2.678,0,0,1,2.135.866,3.752,3.752,0,0,1,.793,1.993h-6.055a3.817,3.817,0,0,1,.913-1.976A2.9,2.9,0,0,1,330.01,182.747Z" transform="translate(-228.493 -172.925)"></path>
            <path class="enl" d="M185.99,191.485a2.4,2.4,0,0,1-.69-1.8V173.446h-5.759q-2.377,0-2.376-2.054,0-2.022,2.376-2.022h16.526q2.375,0,2.375,2.022,0,2.054-2.375,2.054h-5.759v16.242a2.429,2.429,0,0,1-.674,1.8,2.8,2.8,0,0,1-3.643,0Z" transform="translate(-177.165 -169.37)"></path>
            <path class="enl" d="M247.215,193.967q0,1.8-2.182,1.8h-10.4a2.128,2.128,0,0,1-1.573-.61,1.973,1.973,0,0,1-.61-1.445,2.336,2.336,0,0,1,.674-1.669l7.51-8.41h-6.162q-2.183,0-2.182-1.8,0-1.829,2.182-1.829h10.014a2.119,2.119,0,0,1,1.589.61,2.041,2.041,0,0,1,.594,1.476A2.335,2.335,0,0,1,246,183.76l-7.478,8.377h6.516Q247.215,192.137,247.215,193.967Z" transform="translate(-196.685 -173.136)"></path>
            <path class="enl" d="M364.742,169.98a2.041,2.041,0,0,1,.69,1.605v18.328a2.176,2.176,0,0,1-.658,1.653,2.758,2.758,0,0,1-3.5,0,2.176,2.176,0,0,1-.658-1.653v-.257a4.938,4.938,0,0,1-2.006,1.91,6.17,6.17,0,0,1-2.937.69,6.429,6.429,0,0,1-3.611-1.043,6.918,6.918,0,0,1-2.472-2.921,10.039,10.039,0,0,1-.882-4.317,9.827,9.827,0,0,1,.882-4.285,6.461,6.461,0,0,1,6.082-3.836,6.214,6.214,0,0,1,2.905.674,4.831,4.831,0,0,1,2.006,1.894v-6.933a1.97,1.97,0,0,1,.642-1.54,2.444,2.444,0,0,1,1.7-.578A2.639,2.639,0,0,1,364.742,169.98ZM359.7,187.393a5.35,5.35,0,0,0,.915-3.354,5.281,5.281,0,0,0-.915-3.339,3.142,3.142,0,0,0-2.616-1.155,3.209,3.209,0,0,0-2.632,1.139,5.088,5.088,0,0,0-.931,3.29,5.424,5.424,0,0,0,.931,3.386,3.494,3.494,0,0,0,5.248.032Z" transform="translate(-237.911 -169.37)"></path>
            <path class="enl" d="M218.284,181.677a6.587,6.587,0,0,0-4.573-1.672l-5.124.007a1.81,1.81,0,0,0,.005,3.621l4.457-.006a2.46,2.46,0,0,1,1.688.6,1.829,1.829,0,0,1,.594,1.586v.354h-5.3a4.819,4.819,0,0,0-4.622,4.846,4.6,4.6,0,0,0,.754,2.568,5.082,5.082,0,0,0,2.054,1.8,6.466,6.466,0,0,0,2.9.642,5.017,5.017,0,0,0,2.632-.674,3.777,3.777,0,0,0,1.605-1.862v.225a2.193,2.193,0,0,0,.626,1.621,2.235,2.235,0,0,0,1.653.626,2.335,2.335,0,0,0,1.7-.594,2.2,2.2,0,0,0,.61-1.653v-7.254A6.128,6.128,0,0,0,218.284,181.677Zm-2.953,7.6a3.5,3.5,0,0,1-.866,2.455,2.943,2.943,0,0,1-2.279.947,1.941,1.941,0,0,1-2.086-2.167,1.984,1.984,0,0,1,1.926-1.781h3.306Z" transform="translate(-187.168 -173.136)"></path>
            <path class="enl" d="M278.293,179.93a2.074,2.074,0,0,0-2.318,1.794L274.7,192.036l-3.624-8.388a2.056,2.056,0,0,0-.8-.891,2.148,2.148,0,0,0-1.121-.331,2.017,2.017,0,0,0-1.082.313,2.066,2.066,0,0,0-.775.9l-3.712,8.446-1.244-10.351a2.073,2.073,0,1,0-4.114.51l1.258,10.14a4.077,4.077,0,0,0,3.456,3.558c.109.017.216.029.324.037s.214.012.321.012a4.068,4.068,0,0,0,2.2-.643,4.115,4.115,0,0,0,1.519-1.761l.929-2.456.93-2.456.9,2.421.9,2.421a4.115,4.115,0,0,0,1.518,1.778,4.063,4.063,0,0,0,2.213.65c.1,0,.207,0,.311-.012s.209-.019.314-.035a4.077,4.077,0,0,0,3.474-3.549l1.286-10.1a2.073,2.073,0,0,0-1.794-2.318Z" transform="translate(-205.866 -173.103)"></path>
        </g>
        <path class="fnl" d="M146.423,153.327" transform="translate(-16.718 -0.592)"></path>
    </g>
</svg>